<svg width="25" height="31" viewBox="0 0 25 31" fill="none" xmlns="http://www.w3.org/2000/svg">
<path d="M6.66659 24.25H18.3333V21.3333H6.66659V24.25ZM6.66659 18.4166H18.3333V15.5H6.66659V18.4166ZM3.74992 30.0833C2.94784 30.0833 2.2612 29.7977 1.69002 29.2265C1.11884 28.6553 0.833252 27.9687 0.833252 27.1666V3.83329C0.833252 3.03121 1.11884 2.34458 1.69002 1.7734C2.2612 1.20222 2.94784 0.916626 3.74992 0.916626H15.4166L24.1666 9.66663V27.1666C24.1666 27.9687 23.881 28.6553 23.3098 29.2265C22.7386 29.7977 22.052 30.0833 21.2499 30.0833H3.74992ZM13.9583 11.125H21.2499L13.9583 3.83329V11.125Z" fill="#1C1B1F"/>
</svg>
