<svg width="30" height="30" viewBox="0 0 30 30" fill="none" xmlns="http://www.w3.org/2000/svg">
<path d="M10.2083 15.3125H11.6667V12.3958H13.125C13.5382 12.3958 13.8845 12.2561 14.1641 11.9766C14.4436 11.697 14.5833 11.3507 14.5833 10.9375V9.47917C14.5833 9.06597 14.4436 8.71962 14.1641 8.4401C13.8845 8.16059 13.5382 8.02083 13.125 8.02083H10.2083V15.3125ZM11.6667 10.9375V9.47917H13.125V10.9375H11.6667ZM16.0417 15.3125H18.9583C19.3715 15.3125 19.7179 15.1727 19.9974 14.8932C20.2769 14.6137 20.4167 14.2674 20.4167 13.8542V9.47917C20.4167 9.06597 20.2769 8.71962 19.9974 8.4401C19.7179 8.16059 19.3715 8.02083 18.9583 8.02083H16.0417V15.3125ZM17.5 13.8542V9.47917H18.9583V13.8542H17.5ZM21.875 15.3125H23.3333V12.3958H24.7917V10.9375H23.3333V9.47917H24.7917V8.02083H21.875V15.3125ZM8.75 23.3333C7.94792 23.3333 7.26128 23.0477 6.6901 22.4766C6.11892 21.9054 5.83333 21.2187 5.83333 20.4167V2.91667C5.83333 2.11458 6.11892 1.42795 6.6901 0.856771C7.26128 0.28559 7.94792 0 8.75 0H26.25C27.0521 0 27.7387 0.28559 28.3099 0.856771C28.8811 1.42795 29.1667 2.11458 29.1667 2.91667V20.4167C29.1667 21.2187 28.8811 21.9054 28.3099 22.4766C27.7387 23.0477 27.0521 23.3333 26.25 23.3333H8.75ZM2.91667 29.1667C2.11458 29.1667 1.42795 28.8811 0.856771 28.3099C0.28559 27.7387 0 27.0521 0 26.25V5.83333H2.91667V26.25H23.3333V29.1667H2.91667Z" fill="#FAF9F6"/>
</svg>
