<svg width="60" height="60" viewBox="0 0 60 60" fill="none" xmlns="http://www.w3.org/2000/svg">
<mask id="mask0_78_46" style="mask-type:alpha" maskUnits="userSpaceOnUse" x="0" y="0" width="60" height="60">
<rect width="60" height="60" fill="#D9D9D9"/>
</mask>
<g mask="url(#mask0_78_46)">
<path d="M14.6252 42.285C16.7502 40.673 19.1252 39.402 21.7502 38.472C24.3752 37.542 27.1252 37.077 30.0002 37.077C32.8752 37.077 35.6252 37.542 38.2503 38.472C40.8753 39.402 43.2503 40.673 45.3753 42.285C46.8336 40.5904 47.969 38.6684 48.7815 36.519C49.594 34.3697 50.0003 32.0757 50.0003 29.637C50.0003 24.1397 48.0523 19.4587 44.1565 15.594C40.2607 11.7294 35.5419 9.79704 30.0002 9.79704C24.4586 9.79704 19.7398 11.7294 15.844 15.594C11.9482 19.4587 10.0002 24.1397 10.0002 29.637C10.0002 32.0757 10.4065 34.3697 11.219 36.519C12.0315 38.6684 13.1669 40.5904 14.6252 42.285ZM30.0002 32.117C27.5419 32.117 25.469 31.28 23.7815 29.606C22.094 27.932 21.2502 25.8757 21.2502 23.437C21.2502 20.9984 22.094 18.942 23.7815 17.268C25.469 15.594 27.5419 14.757 30.0002 14.757C32.4586 14.757 34.5315 15.594 36.219 17.268C37.9065 18.942 38.7503 20.9984 38.7503 23.437C38.7503 25.8757 37.9065 27.932 36.219 29.606C34.5315 31.28 32.4586 32.117 30.0002 32.117ZM30.0002 54.437C26.5419 54.437 23.2919 53.786 20.2502 52.484C17.2086 51.182 14.5627 49.415 12.3127 47.183C10.0627 44.951 8.28149 42.3264 6.96899 39.309C5.65649 36.2917 5.00024 33.0677 5.00024 29.637C5.00024 26.2064 5.65649 22.9824 6.96899 19.965C8.28149 16.9477 10.0627 14.323 12.3127 12.091C14.5627 9.85904 17.2086 8.09204 20.2502 6.79004C23.2919 5.48804 26.5419 4.83704 30.0002 4.83704C33.4586 4.83704 36.7086 5.48804 39.7503 6.79004C42.7919 8.09204 45.4378 9.85904 47.6878 12.091C49.9378 14.323 51.719 16.9477 53.0315 19.965C54.344 22.9824 55.0003 26.2064 55.0003 29.637C55.0003 33.0677 54.344 36.2917 53.0315 39.309C51.719 42.3264 49.9378 44.951 47.6878 47.183C45.4378 49.415 42.7919 51.182 39.7503 52.484C36.7086 53.786 33.4586 54.437 30.0002 54.437Z" fill="#DCDCDC"/>
</g>
</svg>
