<svg width="36" height="36" viewBox="0 0 36 36" fill="none" xmlns="http://www.w3.org/2000/svg">
<mask id="mask0_196_624" style="mask-type:alpha" maskUnits="userSpaceOnUse" x="0" y="0" width="36" height="36">
<rect width="35.4805" height="35.4805" fill="#D9D9D9"/>
</mask>
<g mask="url(#mask0_196_624)">
<path d="M17.7403 32.5238C15.6953 32.5238 13.7734 32.1357 11.9747 31.3596C10.1761 30.5834 8.61149 29.5301 7.28097 28.1996C5.95045 26.8691 4.89713 25.3045 4.12099 23.5058C3.34485 21.7072 2.95679 19.7853 2.95679 17.7403C2.95679 15.6952 3.34485 13.7733 4.12099 11.9747C4.89713 10.176 5.95045 8.61143 7.28097 7.28091C8.61149 5.95039 10.1761 4.89706 11.9747 4.12093C13.7734 3.34479 15.6953 2.95673 17.7403 2.95673H29.5671C30.3802 2.95673 31.0763 3.24624 31.6553 3.82526C32.2343 4.40428 32.5238 5.10034 32.5238 5.91343V17.7403C32.5238 19.7853 32.1358 21.7072 31.3596 23.5058C30.5835 25.3045 29.5302 26.8691 28.1997 28.1996C26.8691 29.5301 25.3046 30.5834 23.5059 31.3596C21.7072 32.1357 19.7854 32.5238 17.7403 32.5238ZM10.3486 22.1753H20.697V19.2186L25.1321 22.1753V13.3052L20.697 16.2619V13.3052H10.3486V22.1753Z" fill="#1C1B1F"/>
</g>
</svg>
